<svg width="31" height="28" viewBox="0 0 31 28" fill="none" xmlns="http://www.w3.org/2000/svg">
<path d="M18.0684 10.8984C17.7943 10.1256 17.181 9.51234 16.4082 9.23824V0H14.5918V9.23824C13.9383 9.47002 13.399 9.94446 13.0822 10.5528L1.57452 5.52521L0.847293 7.1897L9.33633 10.8984H0V12.5286L2.95378 23.8514C3.47515 25.8501 5.28205 27.2461 7.34773 27.2461H23.6523C25.718 27.2461 27.5248 25.8501 28.0462 23.8514L31 12.5286V10.8984H18.0684ZM15.5 10.8984C16.0008 10.8984 16.4082 11.3059 16.4082 11.8066C16.4082 12.3074 16.0008 12.7148 15.5 12.7148C14.9992 12.7148 14.5918 12.3074 14.5918 11.8066C14.5918 11.3059 14.9992 10.8984 15.5 10.8984ZM26.2887 23.3928C25.9758 24.5921 24.8917 25.4297 23.6523 25.4297H7.34773C6.10833 25.4297 5.02418 24.5921 4.71133 23.3928L1.92575 12.7148H12.9316C13.3065 13.7719 14.316 14.5312 15.5 14.5312C16.684 14.5312 17.6935 13.7719 18.0684 12.7148H29.0742L26.2887 23.3928Z" fill="black"/>
</svg>
