<svg width="28" height="28" viewBox="0 0 28 28" fill="none" xmlns="http://www.w3.org/2000/svg">
<path d="M19.5381 0.75C21.6633 0.75 23.7212 1.81751 25.4033 3.85742L25.5889 4.09082C27.4847 6.59813 28.4482 11.8706 24.6123 15.8447L24.6113 15.8438C22.863 17.6723 14.9215 26.5426 14.5361 26.9688C14.3933 27.1795 14.1821 27.25 13.9941 27.25C13.8978 27.2499 13.8057 27.2319 13.7188 27.1904C13.6763 27.1702 13.6381 27.1461 13.6035 27.1191L13.5088 27.0312C13.4066 26.9217 5.24114 17.7046 3.42383 15.8955L3.42188 15.8926C-0.58318 11.7898 0.572006 6.30237 2.62988 3.85645L2.95605 3.48633C4.59984 1.69099 6.45841 0.750064 8.49414 0.75C10.725 0.75 12.7649 2.13457 13.998 4.40332C15.2619 2.13665 17.2646 0.750012 19.5381 0.75ZM19.5381 2.22461C17.4693 2.22465 15.5921 3.79338 14.6182 6.38086L14.6172 6.37988C14.5742 6.50602 14.486 6.61254 14.3877 6.68555C14.2844 6.7622 14.1458 6.82129 13.9941 6.82129C13.8426 6.82117 13.7047 6.76213 13.6016 6.68555C13.5029 6.61232 13.4139 6.50557 13.3711 6.37891L13.3701 6.37988C12.3966 3.74808 10.5203 2.22461 8.49414 2.22461C6.81279 2.2247 5.14389 3.10255 3.66016 4.8291L3.66113 4.83008C1.95346 6.83954 0.984332 11.3797 4.38477 14.8457L4.75098 15.2256C6.76447 17.3452 12.3042 23.556 13.9961 25.5068C15.8075 23.4599 22.051 16.4674 23.6025 14.8936L23.9053 14.5654C26.9012 11.1426 25.9403 6.77707 24.3281 4.87598L24.3223 4.87012V4.86914C22.8859 3.05781 21.2639 2.22461 19.5381 2.22461Z" fill="black" stroke="black" stroke-width="0.5"/>
</svg>
