<svg width="24" height="28" viewBox="0 0 24 28" fill="none" xmlns="http://www.w3.org/2000/svg">
<path d="M16.4072 13.0821C17.1775 12.4268 17.7963 11.6121 18.221 10.6943C18.6456 9.77643 18.8659 8.77734 18.8667 7.76603V6.81728C18.8172 4.9924 18.0575 3.25889 16.7492 1.98565C15.441 0.712422 13.6875 0 11.862 0C10.0364 0 8.28292 0.712422 6.97467 1.98565C5.66642 3.25889 4.9067 4.9924 4.85719 6.81728V7.76087C4.85798 8.77218 5.0783 9.77127 5.50295 10.6891C5.9276 11.607 6.54644 12.4217 7.31672 13.077C5.21412 13.6623 3.3608 14.9195 2.03968 16.6568C0.718565 18.3941 0.00222049 20.516 0 22.6985V26.112C0 26.3855 0.108649 26.6478 0.302046 26.8412C0.495443 27.0346 0.757746 27.1432 1.03125 27.1432H22.6875C22.961 27.1432 23.2233 27.0346 23.4167 26.8412C23.6101 26.6478 23.7188 26.3855 23.7188 26.112V22.6985C23.7157 20.5175 22.9996 18.3974 21.6796 16.6612C20.3595 14.925 18.508 13.6681 16.4072 13.0821ZM6.91453 6.81728C6.95598 5.53414 7.49485 4.31742 8.41717 3.4244C9.3395 2.53139 10.573 2.03209 11.8568 2.03209C13.1406 2.03209 14.3741 2.53139 15.2964 3.4244C16.2187 4.31742 16.7576 5.53414 16.7991 6.81728V7.76087C16.7576 9.04401 16.2187 10.2607 15.2964 11.1537C14.3741 12.0468 13.1406 12.5461 11.8568 12.5461C10.573 12.5461 9.3395 12.0468 8.41717 11.1537C7.49485 10.2607 6.95598 9.04401 6.91453 7.76087V6.81728ZM21.6562 25.0807H2.0625V22.6985C2.06387 20.5957 2.89982 18.5794 4.38674 17.0925C5.87367 15.6055 7.88998 14.7696 9.99281 14.7682H13.7311C15.833 14.7709 17.848 15.6075 19.3338 17.0943C20.8196 18.5811 21.6549 20.5966 21.6562 22.6985V25.0807Z" fill="black"/>
</svg>
